<svg width="26.000000" height="26.000000" viewBox="0 0 26 26" fill="none" xmlns="http://www.w3.org/2000/svg" xmlns:xlink="http://www.w3.org/1999/xlink">
	<desc>
			Created with Pixso.
	</desc>
	<defs>
		<clipPath id="clip61_594">
			<rect id="Linear / Time / Calendar Minimalistic" rx="5.000000" width="26.000000" height="26.000000" fill="white" fill-opacity="0"/>
		</clipPath>
	</defs>
	<g clip-path="url(#clip61_594)">
		<path id="Vector" d="M14.73 6.06C18 6.06 19.63 6.06 20.65 7.08C21.66 8.09 21.66 9.73 21.66 13L21.66 14.73C21.66 18 21.66 19.63 20.65 20.65C19.63 21.66 18 21.66 14.73 21.66L11.26 21.66C7.99 21.66 6.36 21.66 5.34 20.65C4.33 19.63 4.33 18 4.33 14.73L4.33 13C4.33 9.73 4.33 8.09 5.34 7.08C6.36 6.06 7.99 6.06 11.26 6.06L14.73 6.06Z" stroke="#AEAEAE" stroke-opacity="1.000000" stroke-width="1.500000"/>
		<path id="Vector" d="M8.66 6.06L8.66 " stroke="#AEAEAE" stroke-opacity="1.000000" stroke-width="1.500000" stroke-linecap="round"/>
		<path id="Vector" d="M17.33 6.06L17.33 " stroke="#AEAEAE" stroke-opacity="1.000000" stroke-width="1.500000" stroke-linecap="round"/>
		<path id="Vector" d="M4.76 10.4L21.23 " stroke="#AEAEAE" stroke-opacity="1.000000" stroke-width="1.500000" stroke-linecap="round"/>
	</g>
</svg>
