<svg width="26.000000" height="26.000000" viewBox="0 0 26 26" fill="none" xmlns="http://www.w3.org/2000/svg" xmlns:xlink="http://www.w3.org/1999/xlink">
	<desc>
			Created with Pixso.
	</desc>
	<defs>
		<clipPath id="clip61_631">
			<rect id="Linear / Settings, Fine Tuning / Widget 5" rx="5.000000" width="26.000000" height="26.000000" fill="white" fill-opacity="0"/>
		</clipPath>
	</defs>
	<g clip-path="url(#clip61_631)">
		<path id="Rectangle 1884" d="M21.23 17.76C21.23 19.4 21.23 20.21 20.72 20.72C20.21 21.23 19.4 21.23 17.76 21.23C16.13 21.23 15.31 21.23 14.8 20.72C14.3 20.21 14.3 19.4 14.3 17.76L14.3 16.03C14.3 14.39 14.3 13.58 14.8 13.07C15.31 12.56 16.13 12.56 17.76 12.56C19.4 12.56 20.21 12.56 20.72 13.07C21.23 13.58 21.23 14.39 21.23 16.03L21.23 17.76Z" stroke="#FFFFFF" stroke-opacity="1.000000" stroke-width="1.500000"/>
		<path id="Rectangle 1885" d="M11.26 8.23C11.26 6.59 11.26 5.78 10.75 5.27C10.25 4.76 9.43 4.76 7.8 4.76C6.16 4.76 5.34 4.76 4.84 5.27C4.33 5.78 4.33 6.59 4.33 8.23L4.33 9.96C4.33 11.6 4.33 12.41 4.84 12.92C5.34 13.43 6.16 13.43 7.8 13.43C9.43 13.43 10.25 13.43 10.75 12.92C11.26 12.41 11.26 11.6 11.26 9.96L11.26 8.23Z" stroke="#FFFFFF" stroke-opacity="1.000000" stroke-width="1.500000"/>
		<path id="Rectangle 1881" d="M18.63 4.76C19.44 4.76 19.84 4.76 20.16 4.89C20.58 5.07 20.92 5.41 21.1 5.83C21.23 6.15 21.23 6.55 21.23 7.36C21.23 8.17 21.23 8.57 21.1 8.89C20.92 9.32 20.58 9.65 20.16 9.83C19.84 9.96 19.44 9.96 18.63 9.96L16.9 9.96C16.09 9.96 15.68 9.96 15.37 9.83C14.94 9.65 14.6 9.32 14.43 8.89C14.3 8.57 14.3 8.17 14.3 7.36C14.3 6.55 14.3 6.15 14.43 5.83C14.6 5.41 14.94 5.07 15.37 4.89C15.68 4.76 16.09 4.76 16.9 4.76L18.63 4.76Z" stroke="#FFFFFF" stroke-opacity="1.000000" stroke-width="1.500000"/>
		<path id="Rectangle 1886" d="M8.66 21.23C9.47 21.23 9.87 21.23 10.19 21.1C10.62 20.92 10.95 20.58 11.13 20.16C11.26 19.84 11.26 19.44 11.26 18.63C11.26 17.82 11.26 17.42 11.13 17.1C10.95 16.67 10.62 16.34 10.19 16.16C9.87 16.03 9.47 16.03 8.66 16.03L6.93 16.03C6.12 16.03 5.72 16.03 5.4 16.16C4.97 16.34 4.64 16.67 4.46 17.1C4.33 17.42 4.33 17.82 4.33 18.63C4.33 19.44 4.33 19.84 4.46 20.16C4.64 20.58 4.97 20.92 5.4 21.1C5.72 21.23 6.12 21.23 6.93 21.23L8.66 21.23Z" stroke="#FFFFFF" stroke-opacity="1.000000" stroke-width="1.500000"/>
	</g>
</svg>
