<svg width="26.000000" height="26.000000" viewBox="0 0 26 26" fill="none" xmlns="http://www.w3.org/2000/svg" xmlns:xlink="http://www.w3.org/1999/xlink">
	<desc>
			Created with Pixso.
	</desc>
	<defs>
		<clipPath id="clip61_628">
			<rect id="Linear / Mesages, Conversation /  Letter" width="26.000000" height="26.000000" fill="white" fill-opacity="0"/>
		</clipPath>
	</defs>
	<g clip-path="url(#clip61_628)">
		<path id="Vector" d="M14.73 6.06C18 6.06 19.63 6.06 20.65 7.08C21.66 8.09 21.66 9.73 21.66 13C21.66 16.26 21.66 17.9 20.65 18.91C19.63 19.93 18 19.93 14.73 19.93L11.26 19.93C7.99 19.93 6.36 19.93 5.34 18.91C4.33 17.9 4.33 16.26 4.33 13C4.33 9.73 4.33 8.09 5.34 7.08C6.36 6.06 7.99 6.06 11.26 6.06L14.73 6.06Z" stroke="#AEAEAE" stroke-opacity="1.000000" stroke-width="1.500000"/>
		<path id="Vector" d="M7.8 9.53L9.67 11.09C11.26 12.41 12.05 13.08 13 13.08C13.94 13.08 14.73 12.41 16.32 11.09L18.2 " stroke="#AEAEAE" stroke-opacity="1.000000" stroke-width="1.500000" stroke-linecap="round"/>
	</g>
</svg>
