<svg width="26.000000" height="26.000000" viewBox="0 0 26 26" fill="none" xmlns="http://www.w3.org/2000/svg" xmlns:xlink="http://www.w3.org/1999/xlink">
	<desc>
			Created with Pixso.
	</desc>
	<defs>
		<clipPath id="clip61_599">
			<rect id="Linear / Folders / Folder" width="26.000000" height="26.000000" fill="white" fill-opacity="0"/>
		</clipPath>
	</defs>
	<g clip-path="url(#clip61_599)">
		<path id="Vector" d="M18.2 11.26L13.86 " stroke="#AEAEAE" stroke-opacity="1.000000" stroke-width="1.500000" stroke-linecap="round"/>
		<path id="Vector" d="M21.66 14.73C21.66 18 21.66 19.63 20.65 20.65C19.63 21.66 18 21.66 14.73 21.66L11.26 21.66C7.99 21.66 6.36 21.66 5.34 20.65C4.33 19.63 4.33 18 4.33 14.73L4.33 8.62C4.33 7.85 4.33 7.47 4.39 7.15C4.65 5.75 5.75 4.65 7.15 4.39C7.47 4.33 7.85 4.33 8.62 4.33C8.95 4.33 9.12 4.33 9.28 4.34C9.98 4.41 10.63 4.68 11.17 5.13C11.3 5.23 11.41 5.35 11.65 5.58L12.13 6.06C12.84 6.77 13.19 7.12 13.61 7.36C13.84 7.49 14.09 7.59 14.35 7.66C14.81 7.8 15.31 7.8 16.31 7.8L16.64 7.8C18.92 7.8 20.06 7.8 20.8 8.46C20.87 8.52 20.93 8.59 20.99 8.66C21.66 9.4 21.66 10.54 21.66 12.82L21.66 14.73Z" stroke="#AEAEAE" stroke-opacity="1.000000" stroke-width="1.500000"/>
	</g>
</svg>
