<svg width="92.000000" height="92.000000" viewBox="0 0 92 92" fill="none" xmlns="http://www.w3.org/2000/svg" xmlns:xlink="http://www.w3.org/1999/xlink">
	<desc>
			Created with Pixso.
	</desc>
	<defs>
		<clipPath id="clip2_549">
			<rect id="Frame" width="92.000000" height="92.000000" fill="white" fill-opacity="0"/>
		</clipPath>
	</defs>
	<rect id="Frame" width="92.000000" height="92.000000" fill="#FFFFFF" fill-opacity="0"/>
	<g clip-path="url(#clip2_549)">
		<path id="Vector" d="M79.96 41.47L16.81 6.79C14.11 5.32 11.7 5.46 10.23 6.83C9.19 7.79 8.62 9.35 8.62 11.36L8.62 80.59C8.62 82.61 9.24 84.16 10.23 85.12C11.74 86.54 14.11 86.68 16.81 85.17L79.96 50.48C84.51 48.01 84.51 43.99 79.96 41.47Z" fill="#F1471D" fill-opacity="1.000000" fill-rule="nonzero"/>
		<path id="Vector" d="M74.56 53.53C75.32 51.02 75.7 48.31 75.7 45.57C75.7 29.42 62.11 16.29 45.4 16.29C28.69 16.29 15.1 29.42 15.1 45.57C15.1 59.11 24.62 70.51 37.54 73.85L74.56 53.53Z" fill="#FCD117" fill-opacity="1.000000" fill-rule="nonzero"/>
		<path id="Vector" d="M64.93 46C64.93 56.11 56.45 64.3 45.99 64.3C35.54 64.3 27.06 56.11 27.06 46C27.06 35.89 35.54 27.7 45.99 27.7C56.45 27.7 64.93 35.89 64.93 46Z" fill="#F48B15" fill-opacity="1.000000" fill-rule="nonzero"/>
		<path id="Vector" d="M45.99 36.39L45.99 47.65C45.33 47.28 44.57 47.05 43.77 47.05C41.31 47.05 39.37 48.98 39.37 51.31C39.37 53.69 41.36 55.56 43.77 55.56C46.23 55.56 48.36 53.64 48.36 51.31L48.36 40.97L52.62 40.97L52.62 36.39L45.99 36.39Z" fill="#FFFFFF" fill-opacity="1.000000" fill-rule="nonzero"/>
	</g>
</svg>
