<svg width="24.000000" height="24.000000" viewBox="0 0 24 24" fill="none" xmlns="http://www.w3.org/2000/svg" xmlns:xlink="http://www.w3.org/1999/xlink">
	<desc>
			Created with Pixso.
	</desc>
	<defs>
		<clipPath id="clip61_265">
			<rect id="Linear / Messages, Coversation / " width="24.000000" height="24.000000" fill="white" fill-opacity="0"/>
		</clipPath>
	</defs>
	<g clip-path="url(#clip61_265)">
		<path id="Vector" d="M11.3 18.77C11.63 18.2 11.8 17.92 12.07 17.76C12.34 17.61 12.68 17.6 13.36 17.59C14.37 17.57 15 17.51 15.53 17.29C16.51 16.88 17.28 16.11 17.69 15.13C18 14.39 18 13.46 18 11.6L18 10.8C18 8.18 18 6.87 17.41 5.91C17.08 5.37 16.62 4.91 16.09 4.58C15.12 4 13.81 4 11.2 4L8.79 4C6.18 4 4.87 4 3.91 4.58C3.37 4.91 2.91 5.37 2.58 5.91C2 6.87 2 8.18 2 10.8L2 11.6C2 13.46 2 14.39 2.3 15.13C2.71 16.11 3.48 16.88 4.46 17.29C4.99 17.51 5.62 17.57 6.63 17.59C7.31 17.6 7.65 17.61 7.92 17.76C8.19 17.92 8.36 18.2 8.69 18.77L9.13 19.51C9.51 20.16 10.48 20.16 10.86 19.51L11.3 18.77Z" stroke="#637DFF" stroke-opacity="1.000000" stroke-width="1.200000"/>
	</g>
</svg>
