<svg width="26.000000" height="26.000000" viewBox="0 0 26 26" fill="none" xmlns="http://www.w3.org/2000/svg" xmlns:xlink="http://www.w3.org/1999/xlink">
	<desc>
			Created with Pixso.
	</desc>
	<defs>
		<clipPath id="clip61_589">
			<rect id="Linear / Files / File Text" width="26.000000" height="26.000000" fill="white" fill-opacity="0"/>
		</clipPath>
	</defs>
	<g clip-path="url(#clip61_589)">
		<path id="Vector" d="M11.26 21.66C7.99 21.66 6.36 21.66 5.34 20.65C4.33 19.63 4.33 18 4.33 14.73L4.33 11.26C4.33 7.99 4.33 6.36 5.34 5.34C6.36 4.33 8 4.33 11.29 4.33C12.61 4.33 13.27 4.33 13.87 4.56C14.47 4.79 14.96 5.23 15.94 6.11L19.37 9.2C20.5 10.21 21.06 10.72 21.36 11.4C21.66 12.07 21.66 12.83 21.66 14.35L21.66 14.73C21.66 18 21.66 19.63 20.65 20.65C19.63 21.66 18 21.66 14.73 21.66L11.26 21.66Z" stroke="#AEAEAE" stroke-opacity="1.000000" stroke-width="1.500000"/>
		<path id="Vector" d="M7.79 15.16L14.73 " stroke="#AEAEAE" stroke-opacity="1.000000" stroke-width="1.500000" stroke-linecap="round"/>
		<path id="Vector" d="M7.79 18.2L12.56 " stroke="#AEAEAE" stroke-opacity="1.000000" stroke-width="1.500000" stroke-linecap="round"/>
		<path id="Vector" d="M13.86 4.76L13.86 6.93C13.86 8.97 13.86 9.99 14.5 10.63C15.13 11.26 16.15 11.26 18.2 11.26L21.66 " stroke="#AEAEAE" stroke-opacity="1.000000" stroke-width="1.500000"/>
	</g>
</svg>
